# xmcd CD database file
#
# Track frame offsets:
#	150
#	10263
#	25611
#	47430
#	71018
#	91590
#	112120
#	132978
#	152435
#	179757
#	204181
#
# Disc length: 2950 seconds
#
# Revision: 0
# Processed by: cddbd v1.5.2PL0 Copyright (c) Steve Scherf et al.
# Submitted via: CDex 1.70beta2
#
DISCID=840b840b
DTITLE=Ani Choying Drolma  - Time
DYEAR=2008
DGENRE=New Age
TTITLE0=Ganesh Strota
TTITLE1=Hunchha malai bihan
TTITLE2=Samaya Nadima
TTITLE3=Bhujnai Sakina
TTITLE4=Jiunata
TTITLE5=Hiunka Chuchura
TTITLE6=Salala
TTITLE7=Manaina Ho
TTITLE8=Ghari Ghari
TTITLE9=Bhagwan Timrai
TTITLE10=Om Tare Tuttare
EXTD=YEAR: 2008
EXTT0=
EXTT1=
EXTT2=
EXTT3=
EXTT4=
EXTT5=
EXTT6=
EXTT7=
EXTT8=
EXTT9=
EXTT10=
PLAYORDER=
